<svg width="108" height="52" viewBox="0 0 108 52" fill="none" xmlns="http://www.w3.org/2000/svg">
<path d="M19.917 51H13.5596V8.85645L0.810547 13.5391V7.79688L18.9258 0.995117H19.917V51ZM67.223 14.2227C67.223 16.7064 66.5622 18.9167 65.2406 20.8535C63.9418 22.7904 62.1758 24.3057 59.9428 25.3994C62.5404 26.516 64.5912 28.1452 66.0951 30.2871C67.6218 32.429 68.3852 34.8558 68.3852 37.5674C68.3852 41.874 66.9268 45.3034 64.0102 47.8555C61.1163 50.4076 57.2995 51.6836 52.56 51.6836C47.7748 51.6836 43.9353 50.4076 41.0414 47.8555C38.1703 45.2806 36.7348 41.8512 36.7348 37.5674C36.7348 34.8786 37.4639 32.4518 38.9223 30.2871C40.4034 28.1224 42.4428 26.4818 45.0404 25.3652C42.8301 24.2715 41.087 22.7562 39.8109 20.8193C38.5349 18.8825 37.8969 16.6836 37.8969 14.2227C37.8969 10.0299 39.2413 6.70312 41.9301 4.24219C44.6189 1.78125 48.1622 0.550781 52.56 0.550781C56.935 0.550781 60.4669 1.78125 63.1557 4.24219C65.8673 6.70312 67.223 10.0299 67.223 14.2227ZM62.0619 37.4307C62.0619 34.6507 61.1732 32.3835 59.3959 30.6289C57.6413 28.8743 55.3399 27.9971 52.4916 27.9971C49.6433 27.9971 47.3533 28.863 45.6215 30.5947C43.9125 32.3265 43.058 34.6051 43.058 37.4307C43.058 40.2562 43.8897 42.4779 45.5531 44.0957C47.2393 45.7135 49.5749 46.5225 52.56 46.5225C55.5222 46.5225 57.8464 45.7135 59.5326 44.0957C61.2188 42.4551 62.0619 40.2334 62.0619 37.4307ZM52.56 5.74609C50.0762 5.74609 48.0596 6.52083 46.5102 8.07031C44.9835 9.59701 44.2201 11.682 44.2201 14.3252C44.2201 16.8545 44.9721 18.9053 46.476 20.4775C48.0027 22.027 50.0307 22.8018 52.56 22.8018C55.0893 22.8018 57.1059 22.027 58.6098 20.4775C60.1365 18.9053 60.8998 16.8545 60.8998 14.3252C60.8998 11.7959 60.1137 9.73372 58.5414 8.13867C56.9691 6.54362 54.9753 5.74609 52.56 5.74609ZM93.7137 24.3057H107.591V30.2871H93.7137V46.0098H87.3562V30.2871H73.4793V24.3057H87.3562V9.7793H93.7137V24.3057Z" fill="#F8634A"/>
</svg>
