<svg width="27" height="27" viewBox="0 0 27 27" fill="none" xmlns="http://www.w3.org/2000/svg">
<path d="M13.5 27C20.9558 27 27 20.9558 27 13.5C27 6.04418 20.9558 0 13.5 0C6.04418 0 0 6.04418 0 13.5C0 20.9558 6.04418 27 13.5 27Z" fill="url(#paint0_linear)"/>
<path d="M16.9313 5.9625C17.9979 5.9625 19.0209 6.38623 19.7751 7.14048C20.5294 7.89473 20.9531 8.91771 20.9531 9.98438V16.9313C20.9531 17.9979 20.5294 19.0209 19.7751 19.7751C19.0209 20.5294 17.9979 20.9531 16.9313 20.9531H9.98438C8.91771 20.9531 7.89473 20.5294 7.14048 19.7751C6.38623 19.0209 5.9625 17.9979 5.9625 16.9313V9.98438C5.9625 8.91771 6.38623 7.89473 7.14048 7.14048C7.89473 6.38623 8.91771 5.9625 9.98438 5.9625H16.9313ZM16.9313 4.5H9.98438C8.53116 4.50434 7.13871 5.08355 6.11113 6.11113C5.08355 7.13871 4.50434 8.53116 4.5 9.98438V16.9313C4.50434 18.3845 5.08355 19.7769 6.11113 20.8045C7.13871 21.8321 8.53116 22.4113 9.98438 22.4156H16.9313C18.3845 22.4113 19.7769 21.8321 20.8045 20.8045C21.8321 19.7769 22.4113 18.3845 22.4156 16.9313V9.98438C22.4113 8.53116 21.8321 7.13871 20.8045 6.11113C19.7769 5.08355 18.3845 4.50434 16.9313 4.5Z" fill="white"/>
<path d="M18.2362 7.60791C18.0291 7.60791 17.8265 7.66935 17.6543 7.78445C17.482 7.89955 17.3477 8.06315 17.2685 8.25456C17.1892 8.44597 17.1684 8.65659 17.2088 8.85979C17.2493 9.06298 17.349 9.24963 17.4955 9.39613C17.642 9.54263 17.8287 9.6424 18.0319 9.68281C18.2351 9.72323 18.4457 9.70249 18.6371 9.6232C18.8285 9.54392 18.9921 9.40966 19.1072 9.23739C19.2223 9.06513 19.2838 8.8626 19.2838 8.65543C19.2838 8.51786 19.2567 8.38165 19.204 8.25456C19.1514 8.12747 19.0742 8.01199 18.9769 7.91472C18.8797 7.81745 18.7642 7.74029 18.6371 7.68765C18.51 7.635 18.3738 7.60791 18.2362 7.60791Z" fill="white"/>
<path d="M13.507 10.253C14.1464 10.2527 14.7716 10.442 15.3034 10.797C15.8352 11.152 16.2497 11.6568 16.4946 12.2474C16.7394 12.8381 16.8036 13.4881 16.679 14.1153C16.5543 14.7424 16.2464 15.3185 15.7943 15.7706C15.3422 16.2227 14.7661 16.5306 14.139 16.6553C13.5118 16.7799 12.8618 16.7158 12.2711 16.4709C11.6805 16.226 11.1757 15.8115 10.8207 15.2797C10.4657 14.7479 10.2764 14.1227 10.2767 13.4833C10.2782 12.627 10.619 11.8063 11.2245 11.2008C11.8299 10.5953 12.6507 10.2545 13.507 10.253ZM13.507 8.79054C12.5788 8.79234 11.672 9.06926 10.9011 9.58629C10.1303 10.1033 9.52997 10.8373 9.1761 11.6954C8.82223 12.5534 8.73067 13.4972 8.91299 14.4073C9.09532 15.3174 9.54334 16.1531 10.2004 16.8086C10.8575 17.4642 11.6942 17.9103 12.6048 18.0905C13.5153 18.2707 14.4588 18.1769 15.3161 17.821C16.1734 17.4651 16.9059 16.8631 17.4211 16.0911C17.9363 15.319 18.2111 14.4115 18.2108 13.4833C18.2105 12.8662 18.0886 12.2552 17.852 11.6852C17.6154 11.1153 17.2688 10.5975 16.8319 10.1617C16.395 9.72582 15.8765 9.38037 15.306 9.14509C14.7354 8.90982 14.1241 8.78933 13.507 8.79054Z" fill="white"/>
<defs>
<linearGradient id="paint0_linear" x1="10.1266" y1="1.1259" x2="3.37657" y2="16.875" gradientUnits="userSpaceOnUse">
<stop stop-color="#E2C737"/>
<stop offset="0.747917" stop-color="#B65D92"/>
<stop offset="1" stop-color="#9C1EC8"/>
</linearGradient>
</defs>
</svg>
