<svg width="28" height="28" viewBox="0 0 28 28" fill="none" xmlns="http://www.w3.org/2000/svg">
<path d="M14 28C21.732 28 28 21.732 28 14C28 6.26803 21.732 0 14 0C6.26803 0 0 6.26803 0 14C0 21.732 6.26803 28 14 28Z" fill="url(#paint0_linear)"/>
<path d="M5.21403 14.6849C6.85062 13.7834 8.6775 13.031 10.3845 12.2748C13.3211 11.0361 16.2694 9.81895 19.2474 8.68576C19.8268 8.49268 20.8679 8.30386 20.97 9.16252C20.9141 10.378 20.6841 11.5863 20.5264 12.7946C20.1261 15.4518 19.6634 18.0999 19.2122 20.7483C19.0567 21.6305 17.9516 22.0872 17.2445 21.5227C15.5451 20.3748 13.8327 19.2381 12.155 18.0636C11.6054 17.5052 12.115 16.7033 12.6058 16.3045C14.0055 14.9252 15.4898 13.7532 16.8163 12.3026C17.1742 11.4385 16.1169 12.1667 15.7682 12.3899C13.8521 13.7103 11.9828 15.1114 9.96264 16.2718C8.93073 16.8399 7.72801 16.3544 6.69656 16.0375C5.77173 15.6546 4.41652 15.2688 5.21394 14.6849L5.21403 14.6849Z" fill="white"/>
<defs>
<linearGradient id="paint0_linear" x1="10.5016" y1="1.1676" x2="3.50163" y2="17.5" gradientUnits="userSpaceOnUse">
<stop stop-color="#37AEE2"/>
<stop offset="1" stop-color="#1E96C8"/>
</linearGradient>
</defs>
</svg>
