<svg width="30" height="30" viewBox="0 0 30 30" fill="none" xmlns="http://www.w3.org/2000/svg">
<path d="M19.9993 9L9.58579 19.5864C9.21071 19.9615 9 20.4702 9 21.0006C9 21.531 9.21071 22.0398 9.58579 22.4148C9.96086 22.7899 10.4696 23.0006 11 23.0006C11.5304 23.0006 12.0391 22.7899 12.4142 22.4148L24.8277 9.82843C25.1991 9.45699 25.4938 9.01604 25.6948 8.53073C25.8958 8.04543 25.9993 7.52529 25.9993 7C25.9993 6.47471 25.8958 5.95457 25.6948 5.46927C25.4938 4.98396 25.1991 4.54301 24.8277 4.17157C24.4563 3.80014 24.0153 3.5055 23.53 3.30448C23.0447 3.10346 22.5246 3 21.9993 3C21.474 3 20.9538 3.10346 20.4685 3.30448C19.9832 3.5055 19.5423 3.80014 19.1708 4.17157L6.75736 16.758C5.63214 17.8832 5 19.4093 5 21.0006C5 22.5919 5.63214 24.118 6.75736 25.2433C7.88258 26.3685 9.4087 27.0006 11 27.0006C12.5913 27.0006 14.1174 26.3685 15.2426 25.2433L25.4993 15" stroke="white" stroke-width="2" stroke-linecap="round" stroke-linejoin="round"/>
</svg>
