<svg width="20" height="20" viewBox="0 0 20 20" fill="none" xmlns="http://www.w3.org/2000/svg">
<path d="M11.414 10.0001L17.707 3.70709C17.8945 3.51959 17.9998 3.26527 17.9998 3.00009C17.9998 2.73492 17.8945 2.4806 17.707 2.29309C17.5195 2.10559 17.2651 2.00024 17 2.00024C16.7348 2.00024 16.4805 2.10559 16.293 2.29309L9.99997 8.58609L3.70697 2.29309C3.61413 2.20025 3.5039 2.1266 3.3826 2.07635C3.26129 2.02611 3.13127 2.00024 2.99997 2.00024C2.86867 2.00024 2.73865 2.02611 2.61735 2.07635C2.49604 2.1266 2.38582 2.20025 2.29297 2.29309C2.10546 2.4806 2.00012 2.73492 2.00012 3.00009C2.00012 3.26527 2.10546 3.51959 2.29297 3.70709L8.58597 10.0001L2.29297 16.2931C2.10546 16.4806 2.00012 16.7349 2.00012 17.0001C2.00012 17.2653 2.10546 17.5196 2.29297 17.7071C2.48048 17.8946 2.73479 17.9999 2.99997 17.9999C3.26515 17.9999 3.51946 17.8946 3.70697 17.7071L9.99997 11.4141L16.293 17.7071C16.3856 17.8003 16.4958 17.8742 16.6171 17.9247C16.7384 17.9752 16.8686 18.0011 17 18.0011C17.1314 18.0011 17.2615 17.9752 17.3828 17.9247C17.5042 17.8742 17.6143 17.8003 17.707 17.7071C17.7999 17.6143 17.8737 17.5041 17.924 17.3828C17.9743 17.2615 18.0002 17.1314 18.0002 17.0001C18.0002 16.8688 17.9743 16.7387 17.924 16.6174C17.8737 16.4961 17.7999 16.3859 17.707 16.2931L11.414 10.0001Z" fill="white"/>
</svg>
