<svg width="24" height="24" viewBox="0 0 24 24" fill="none" xmlns="http://www.w3.org/2000/svg">
<path d="M15.6094 21.5975C15.8672 21.8579 16.1953 22 16.582 22C17.3555 22 17.9766 21.3844 17.9766 20.6032C17.9766 20.2125 17.8125 19.8574 17.543 19.5851L9.33984 11.4882L17.543 3.41488C17.8125 3.14262 17.9766 2.77565 17.9766 2.39684C17.9766 1.61556 17.3555 1 16.582 1C16.1953 1 15.8672 1.14205 15.6094 1.40248L6.49219 10.3991C6.16406 10.7069 6.01172 11.0857 6 11.5C6 11.9143 6.16406 12.2694 6.49219 12.5891L15.6094 21.5975Z" fill="#FCFCFC"/>
</svg>
