<svg width="36" height="36" viewBox="0 0 36 36" fill="none" xmlns="http://www.w3.org/2000/svg">
<path d="M30.4614 11.0769C31.3394 12.077 32.0358 13.2642 32.511 14.5709C32.9861 15.8775 33.2307 17.278 33.2307 18.6923C33.2307 20.1066 32.9861 21.5071 32.511 22.8137C32.0358 24.1204 31.3394 25.3076 30.4614 26.3077" stroke="white" stroke-width="2" stroke-linecap="round" stroke-linejoin="round"/>
<path d="M10.6443 23.7693H3.89429C3.59592 23.7693 3.30977 23.6477 3.09879 23.4313C2.88781 23.2149 2.76929 22.9214 2.76929 22.6154V13.3846C2.76929 13.0786 2.88781 12.7851 3.09879 12.5687C3.30977 12.3524 3.59592 12.2308 3.89429 12.2308H10.6443L20.7693 4.15387V31.8462L10.6443 23.7693Z" stroke="white" stroke-width="2" stroke-linecap="round" stroke-linejoin="round"/>
<path d="M11.0769 12.4615V23.5385" stroke="white" stroke-width="2" stroke-linecap="round" stroke-linejoin="round"/>
<path d="M27.6924 15.2308C27.6924 15.5944 27.6924 16.0262 27.6924 16.5013C27.6924 16.9765 27.6924 17.4857 27.6924 18C27.6924 18.5143 27.6924 19.0236 27.6924 19.4987C27.6924 19.9738 27.6924 20.4056 27.6924 20.7692" stroke="white" stroke-width="2" stroke-linecap="round" stroke-linejoin="round"/>
</svg>
