<svg width="30" height="30" viewBox="0 0 30 30" fill="none" xmlns="http://www.w3.org/2000/svg">
<path d="M3.74927 5.625H9.37427V17.8125H3.74927C3.50063 17.8125 3.26217 17.7137 3.08635 17.5379C2.91054 17.3621 2.81177 17.1236 2.81177 16.875V6.5625C2.81177 6.31386 2.91054 6.0754 3.08635 5.89959C3.26217 5.72377 3.50063 5.625 3.74927 5.625V5.625Z" stroke="#8A898F" stroke-width="2" stroke-linecap="round" stroke-linejoin="round"/>
<path d="M9.37427 17.8125L14.0618 27.1875C14.5542 27.1875 15.0419 27.0905 15.4968 26.902C15.9518 26.7136 16.3652 26.4374 16.7134 26.0891C17.0616 25.7409 17.3379 25.3275 17.5263 24.8726C17.7148 24.4176 17.8118 23.93 17.8118 23.4375V20.625H25.0628C25.3287 20.625 25.5915 20.5685 25.8338 20.4591C26.0762 20.3498 26.2925 20.1902 26.4684 19.9909C26.6444 19.7916 26.7759 19.5571 26.8544 19.3031C26.9328 19.0491 26.9563 18.7812 26.9233 18.5174L25.5171 7.26743C25.4604 6.81396 25.24 6.3968 24.8974 6.09435C24.5548 5.79191 24.1136 5.625 23.6566 5.625H9.37427" stroke="#8A898F" stroke-width="2" stroke-linecap="round" stroke-linejoin="round"/>
</svg>
