<svg width="28" height="27" viewBox="0 0 28 27" fill="none" xmlns="http://www.w3.org/2000/svg">
<path d="M0 13.5C0 6.04416 6.26801 0 14 0C21.732 0 28 6.04416 28 13.5C28 20.9558 21.732 27 14 27C6.26801 27 0 20.9558 0 13.5Z" fill="#F68634"/>
<path d="M15.5144 16.5601L17.6066 18.5078C18.0352 18.9059 18.0352 19.5525 17.6066 19.951C17.1784 20.3495 16.4844 20.3495 16.0567 19.951L13.9997 18.0371L11.9444 19.951C11.7301 20.1501 11.4493 20.2497 11.1685 20.2497C10.8881 20.2497 10.6077 20.1501 10.3934 19.951C9.96526 19.5525 9.96526 18.9063 10.393 18.5078L12.4854 16.5601C11.7236 16.3985 10.9889 16.1176 10.3121 15.7223C9.79999 15.4218 9.64615 14.7921 9.96884 14.315C10.2906 13.8372 10.9674 13.6934 11.4804 13.994C13.0126 14.8911 14.9863 14.8913 16.5194 13.994C17.0324 13.6934 17.7089 13.8372 18.0314 14.315C18.3541 14.7917 18.1998 15.4218 17.6876 15.7223C17.0109 16.118 16.2762 16.3985 15.5144 16.5601Z" fill="white"/>
<path fill-rule="evenodd" clip-rule="evenodd" d="M10.2478 10.2339C10.2478 12.1545 11.9264 13.7167 13.9904 13.7167C16.0549 13.7167 17.733 12.1545 17.733 10.2339C17.733 8.31269 16.0549 6.75 13.9904 6.75C11.9264 6.75 10.2478 8.31269 10.2478 10.2339ZM15.54 10.2339C15.54 9.43848 14.8449 8.79169 13.9904 8.79169C13.1365 8.79169 12.4408 9.43848 12.4408 10.2339C12.4408 11.0287 13.1365 11.6759 13.9904 11.6759C14.8449 11.6759 15.54 11.0287 15.54 10.2339Z" fill="white"/>
</svg>
