<svg width="28" height="27" viewBox="0 0 28 27" fill="none" xmlns="http://www.w3.org/2000/svg">
<path d="M14 27C21.732 27 28 20.9558 28 13.5C28 6.04418 21.732 0 14 0C6.26803 0 0 6.04418 0 13.5C0 20.9558 6.26803 27 14 27Z" fill="url(#paint0_linear)"/>
<path d="M5.21403 14.1603C6.85062 13.291 8.6775 12.5655 10.3845 11.8363C13.3211 10.6419 16.2694 9.46818 19.2474 8.37547C19.8268 8.18928 20.8679 8.0072 20.97 8.8352C20.9141 10.0072 20.6841 11.1724 20.5264 12.3376C20.1261 14.8999 19.6634 17.4534 19.2121 20.0072C19.0567 20.8579 17.9516 21.2983 17.2444 20.7539C15.5451 19.647 13.8327 18.5509 12.155 17.4184C11.6054 16.8799 12.115 16.1066 12.6058 15.7221C14.0055 14.392 15.4898 13.262 16.8163 11.8631C17.1742 11.0299 16.1169 11.7321 15.7682 11.9473C13.8521 13.2206 11.9828 14.5716 9.96264 15.6906C8.93073 16.2384 7.72801 15.7703 6.69656 15.4646C5.77173 15.0954 4.41652 14.7234 5.21394 14.1604L5.21403 14.1603Z" fill="white"/>
<defs>
<linearGradient id="paint0_linear" x1="10.5016" y1="1.1259" x2="3.92106" y2="17.0483" gradientUnits="userSpaceOnUse">
<stop stop-color="#37AEE2"/>
<stop offset="1" stop-color="#1E96C8"/>
</linearGradient>
</defs>
</svg>
