<svg width="27" height="27" viewBox="0 0 27 27" fill="none" xmlns="http://www.w3.org/2000/svg">
<path d="M0 13.5C0 6.04416 6.04416 0 13.5 0C20.9558 0 27 6.04416 27 13.5C27 20.9558 20.9558 27 13.5 27C6.04416 27 0 20.9558 0 13.5Z" fill="#4680C2"/>
<path fill-rule="evenodd" clip-rule="evenodd" d="M22.0681 9.74312C22.2015 9.32394 22.0681 9.01907 21.4774 9.01907H19.5148C19.0194 9.01907 18.7908 9.28581 18.6574 9.57167C18.6574 9.57167 17.6475 12.0106 16.2375 13.5921C15.7801 14.0494 15.5706 14.2018 15.3229 14.2018C15.1895 14.2018 15.018 14.0494 15.018 13.6302V9.72405C15.018 9.22866 14.8656 9 14.4463 9H11.3596C11.0547 9 10.8642 9.22866 10.8642 9.45731C10.8642 9.93369 11.5692 10.048 11.6454 11.3818V14.2781C11.6454 14.9069 11.5311 15.0212 11.2834 15.0212C10.6165 15.0212 8.99684 12.5632 8.02507 9.76219C7.83449 9.20959 7.64398 9 7.14858 9H5.16689C4.59528 9 4.5 9.26679 4.5 9.5526C4.5 10.0671 5.16689 12.6584 7.60584 16.0882C9.2255 18.4319 11.5311 19.6895 13.608 19.6895C14.8656 19.6895 15.018 19.4037 15.018 18.9273V17.1553C15.018 16.5836 15.1323 16.4884 15.5325 16.4884C15.8183 16.4884 16.3327 16.6408 17.495 17.765C18.8288 19.0988 19.0575 19.7085 19.8006 19.7085H21.7632C22.3348 19.7085 22.6016 19.4227 22.4492 18.8701C22.2777 18.3176 21.6299 17.5173 20.7915 16.5646C20.3341 16.0311 19.6482 15.4404 19.4386 15.1545C19.1528 14.7735 19.229 14.6211 19.4386 14.2781C19.4196 14.2781 21.8204 10.8864 22.0681 9.74312Z" fill="white"/>
</svg>
