<svg width="27" height="27" viewBox="0 0 27 27" fill="none" xmlns="http://www.w3.org/2000/svg">
<path d="M0 13.5C0 6.04416 6.04416 0 13.5 0C20.9558 0 27 6.04416 27 13.5C27 20.9558 20.9558 27 13.5 27C6.04416 27 0 20.9558 0 13.5Z" fill="#FF0000"/>
<path d="M20.3989 10.1662C20.2333 9.53004 19.7453 9.02907 19.1257 8.85905C18.0028 8.55005 13.4998 8.55005 13.4998 8.55005C13.4998 8.55005 8.99678 8.55005 7.87382 8.85905C7.25421 9.02907 6.76625 9.53004 6.60065 10.1662C6.2998 11.3193 6.2998 13.725 6.2998 13.725C6.2998 13.725 6.2998 16.1308 6.60065 17.2839C6.76625 17.9201 7.25421 18.421 7.87382 18.5911C8.99678 18.9 13.4998 18.9 13.4998 18.9C13.4998 18.9 18.0028 18.9 19.1257 18.5911C19.7453 18.421 20.2333 17.9201 20.3989 17.2839C20.6998 16.1308 20.6998 13.725 20.6998 13.725C20.6998 13.725 20.6998 11.3193 20.3989 10.1662Z" fill="white"/>
<path d="M12.1499 16.2V11.7L15.7499 13.95L12.1499 16.2Z" fill="#FF0000"/>
</svg>
