<svg width="27" height="27" viewBox="0 0 27 27" fill="none" xmlns="http://www.w3.org/2000/svg">
<path d="M13.5 27C20.9558 27 27 20.9558 27 13.5C27 6.04418 20.9558 0 13.5 0C6.04418 0 0 6.04418 0 13.5C0 20.9558 6.04418 27 13.5 27Z" fill="white"/>
<path d="M4.5 13.5C4.5 8.52943 8.52943 4.5 13.5 4.5C18.4706 4.5 22.5 8.52943 22.5 13.5C22.5 18.4706 18.4706 22.5 13.5 22.5C8.52943 22.5 4.5 18.4706 4.5 13.5Z" fill="black"/>
<path fill-rule="evenodd" clip-rule="evenodd" d="M13.3179 4.5C13.2754 8.20266 13.0332 10.2748 11.654 11.654C10.2748 13.0332 8.20266 13.2754 4.5 13.3179V13.8552C8.20266 13.8977 10.2748 14.1398 11.654 15.519C13.0116 16.8766 13.2675 18.9056 13.3157 22.5H13.8574C13.9056 18.9056 14.1615 16.8766 15.519 15.519C16.8766 14.1615 18.9056 13.9056 22.5 13.8574V13.3157C18.9056 13.2675 16.8766 13.0116 15.519 11.654C14.1398 10.2748 13.8977 8.20266 13.8552 4.5H13.3179Z" fill="white"/>
</svg>
