<svg width="90" height="52" viewBox="0 0 90 52" fill="none" xmlns="http://www.w3.org/2000/svg">
<path d="M0 0H63.6058C78.1829 0 90 11.6406 90 26C90 40.3594 78.1829 52 63.6058 52H0V0Z" fill="#602BB7"/>
<path d="M57.3482 17.0492H30.0554C27.7943 17.0492 25.9614 18.8939 25.9614 21.1694V37.6503C25.9614 39.9258 27.7943 41.7705 30.0554 41.7705H57.3482C59.6093 41.7705 61.4422 39.9258 61.4422 37.6503V21.1694C61.4422 18.8939 59.6093 17.0492 57.3482 17.0492Z" stroke="white" stroke-width="3" stroke-linejoin="round"/>
<path d="M57.1153 16.8592V14.3726C57.1151 13.7627 56.9756 13.1604 56.7069 12.6086C56.4382 12.0568 56.0469 11.5692 55.5607 11.1804C55.0746 10.7917 54.5057 10.5115 53.8947 10.3598C53.2837 10.208 52.6456 10.1886 52.0259 10.3027L29.4458 14.0286C28.4652 14.2092 27.5806 14.715 26.9445 15.4588C26.3084 16.2024 25.9607 17.1374 25.9614 18.1025V22.1639" stroke="white" stroke-width="3" stroke-linejoin="round"/>
<path d="M53.2212 32.3934C52.6222 32.3934 52.0366 32.2184 51.5385 31.8905C51.0404 31.5628 50.6522 31.0967 50.4229 30.5516C50.1937 30.0064 50.1337 29.4065 50.2506 28.8277C50.3674 28.249 50.6559 27.7173 51.0795 27.3001C51.5031 26.8828 52.0428 26.5987 52.6303 26.4836C53.2178 26.3684 53.8269 26.4275 54.3803 26.6533C54.9337 26.8791 55.4068 27.2615 55.7396 27.7522C56.0724 28.2429 56.2501 28.8197 56.2501 29.4098C56.2501 30.2011 55.931 30.96 55.363 31.5196C54.7949 32.0791 54.0246 32.3934 53.2212 32.3934Z" fill="white"/>
</svg>
