<svg width="90" height="53" viewBox="0 0 90 53" fill="none" xmlns="http://www.w3.org/2000/svg">
<path d="M0 0H63.6058C78.1829 0 90 11.8644 90 26.5C90 41.1356 78.1829 53 63.6058 53H0V0Z" fill="#4680C2"/>
<path d="M34.6154 33.0164C39.8727 33.0164 44.1347 28.7374 44.1347 23.459C44.1347 18.1806 39.8727 13.9016 34.6154 13.9016C29.3581 13.9016 25.0962 18.1806 25.0962 23.459C25.0962 28.7374 29.3581 33.0164 34.6154 33.0164Z" stroke="white" stroke-width="4" stroke-miterlimit="10"/>
<path d="M46.7307 14.2597C48.0414 13.8894 49.4161 13.8051 50.7621 14.0124C52.108 14.2196 53.3941 14.7137 54.5336 15.4614C55.6732 16.2091 56.6396 17.193 57.368 18.3467C58.0964 19.5006 58.5699 20.7975 58.7563 22.1501C58.9428 23.5029 58.838 24.88 58.4491 26.1887C58.0601 27.4973 57.3961 28.7073 56.5016 29.7369C55.6071 30.7665 54.503 31.592 53.2636 32.1577C52.0242 32.7234 50.6782 33.0162 49.3165 33.0164" stroke="white" stroke-width="4" stroke-linecap="round" stroke-linejoin="round"/>
<path d="M21.6345 39.9672C23.0987 37.8201 25.0424 36.0676 27.3016 34.8578C29.5608 33.6481 32.0692 33.0164 34.615 33.0164C37.1608 33.0163 39.6692 33.6477 41.9286 34.8573C44.1879 36.0668 46.1317 37.8191 47.5961 39.9661" stroke="white" stroke-width="4" stroke-linecap="round" stroke-linejoin="round"/>
<path d="M49.3269 33.0164C51.873 33.0145 54.382 33.6451 56.6416 34.8551C58.9012 36.0651 60.8447 37.8186 62.3077 39.9672" stroke="white" stroke-width="4" stroke-linecap="round" stroke-linejoin="round"/>
</svg>
